# xmcd
#
# Track frame offsets:
#	150
#	13825
#	28454
#	42227
#	55682
#	67571
#	80640
#	93421
#	107901
#	122440
#	136326
#	151588
#
# Disc length: 2236 seconds
#
# Revision: 1
# Processed by: cddbd v1.5.2PL0 Copyright (c) Steve Scherf et al.
# Submitted via: audiograbber 1.83.01
#
DISCID=9108ba0c
DTITLE=Die Ladiner - Grüße aus Südtirol - CD 02
DYEAR=1900
DGENRE=Folklore
TTITLE0=Allein in Einsamkeit
TTITLE1=Wahre Liebe, ein Leben lang
TTITLE2=Flüchtlinge
TTITLE3=Wo hoch die Berge steh'n
TTITLE4=Das Glöcklein vom Kalterer See
TTITLE5=Schilehrer-Romanze
TTITLE6=König der Kristalle
TTITLE7=Der Gruß der Gitarren
TTITLE8=Komm mit, ich zeig' dir Südtirol
TTITLE9=Feuerwehr-Sirenen
TTITLE10=Das Glück hat uns nicht vergessen
TTITLE11=Ich hab von Südtirol geträumt
EXTD=
EXTT0=
EXTT1=
EXTT2=
EXTT3=
EXTT4=
EXTT5=
EXTT6=
EXTT7=
EXTT8=
EXTT9=
EXTT10=
EXTT11=
PLAYORDER=
